<?xml version="1.0" encoding="UTF-8"?>
<svg width="183px" height="37px" viewBox="0 0 183 37" version="1.1" xmlns="http://www.w3.org/2000/svg" xmlns:xlink="http://www.w3.org/1999/xlink">
    <!-- Generator: Sketch 53.2 (72643) - https://sketchapp.com -->
    <title>Group 9</title>
    <desc>Created with Sketch.</desc>
    <g id="Page-1" stroke="none" stroke-width="1" fill="none" fill-rule="evenodd">
        <g id="Landing-Page---Before-Signin/Signup" transform="translate(-10.000000, -9.000000)" fill="#000000">
            <g id="Group-7" transform="translate(10.000000, 9.000000)">
                <g id="Group-8">
                    <g id="Group-9">
                        <text id="Pet-Bay-Sands" font-family="Montserrat-SemiBold, Montserrat" font-size="18" font-weight="500">
                            <tspan x="50.116" y="29">Pet Bay Sands</tspan>
                        </text>
                        <g id="real-estate" fill-rule="nonzero">
                            <path d="M44.4929375,20.6735568 L33.9230455,10.4033516 L33.9230455,1.68179489 C33.9230455,0.753015719 33.1480267,0 32.192305,0 C31.2363196,0 30.4615645,0.753015719 30.4615645,1.68179489 L30.4615645,7.04010341 L23.722909,0.492615931 C23.0471186,-0.164148374 21.9512115,-0.164148374 21.2752453,0.492615931 L0.506974603,20.6735568 C-0.168991534,21.3302357 -0.168991534,22.3951504 0.506974603,23.0520001 C0.844913726,23.3805531 1.28779415,23.5447014 1.73076247,23.5447014 C2.17373079,23.5447014 2.6166991,23.3805531 2.95455034,23.0520001 L6.92307185,19.195709 L6.92307185,35.3182051 C6.92307185,36.2469843 7.69800274,37 8.65381235,37 L36.3460998,37 C37.3018215,37 38.0768403,36.2469843 38.0768403,35.3182051 L38.0768403,19.1960506 L42.0454497,23.0520001 C42.72124,23.708679 43.8171471,23.708679 44.4931133,23.0520001 C45.1689915,22.395065 45.1689915,21.3303211 44.4929375,20.6735568 Z M16.8785211,22.4864483 C16.1094789,22.4864483 15.4857197,21.8803292 15.4857197,21.1329502 C15.4857197,20.385315 16.1094789,19.7795374 16.8785211,19.7795374 C17.6479149,19.7795374 18.2712346,20.385315 18.2712346,21.1329502 C18.2713225,21.8803292 17.6479149,22.4864483 16.8785211,22.4864483 Z M20.1965647,16.504598 C21.0508608,16.504598 21.7441414,17.1780163 21.7441414,18.0085797 C21.7441414,18.8391432 21.0509487,19.5125615 20.1965647,19.5125615 C19.3415656,19.5125615 18.6489881,18.8391432 18.6489881,18.0085797 C18.6489881,17.1780163 19.3414777,16.504598 20.1965647,16.504598 Z M22.4997363,28.2545299 C20.4065352,28.2545299 18.7098084,26.6057868 18.7098084,24.5717817 C18.7098084,22.5378621 20.4065352,20.8889481 22.4997363,20.8889481 C24.5929374,20.8889481 26.2896643,22.5379475 26.2896643,24.5717817 C26.2896643,26.6057868 24.5929374,28.2545299 22.4997363,28.2545299 Z M24.8031716,19.5126469 C23.9486119,19.5126469 23.255595,18.8392286 23.255595,18.0086651 C23.255595,17.1781017 23.9486119,16.5046834 24.8031716,16.5046834 C25.6579071,16.5046834 26.350924,17.1781017 26.350924,18.0086651 C26.350924,18.839314 25.6579071,19.5126469 24.8031716,19.5126469 Z M28.1211273,22.4864483 C27.3519972,22.4864483 26.7284138,21.8803292 26.7284138,21.1329502 C26.7284138,20.385315 27.3519093,19.7795374 28.1211273,19.7795374 C28.8902574,19.7795374 29.5140166,20.385315 29.5140166,21.1329502 C29.5140166,21.8803292 28.8902574,22.4864483 28.1211273,22.4864483 Z" id="Shape"></path>
                        </g>
                    </g>
                </g>
            </g>
        </g>
    </g>
</svg>